PathFileType	4	(X/Y/Z)	Run_200 02
DataRate	CameraRate	NumFrames	NumMarkers	Units	OrigDataRate	OrigDataStartFrame	OrigNumFrames
100	100	4	42	mm	100	125	128
Frame#	Time	RASI			LPSI			RPSI			RTH2			RTH3			LTH1			LTH2			LTH3			RTB1			RTB2			LTB1			LTB2			LTB3			RCAL			RMT5			LCAL			LTOE			LMT5			LACR			RACR			CLAV			C7			RUA1			RUA2			RUA3			RLEL			LUA1			LUA2			LUA3			LLEL			RFAsuperior			RFAradius			RFAulna			LFAsuperior			LFAradius			LFAulna			RTOE			RTH1			LMEL			RTB3			RMEL			LASI			
		X1	Y1	Z1	X2	Y2	Z2	X3	Y3	Z3	X4	Y4	Z4	X5	Y5	Z5	X6	Y6	Z6	X7	Y7	Z7	X8	Y8	Z8	X9	Y9	Z9	X10	Y10	Z10	X11	Y11	Z11	X12	Y12	Z12	X13	Y13	Z13	X14	Y14	Z14	X15	Y15	Z15	X16	Y16	Z16	X17	Y17	Z17	X18	Y18	Z18	X19	Y19	Z19	X20	Y20	Z20	X21	Y21	Z21	X22	Y22	Z22	X23	Y23	Z23	X24	Y24	Z24	X25	Y25	Z25	X26	Y26	Z26	X27	Y27	Z27	X28	Y28	Z28	X29	Y29	Z29	X30	Y30	Z30	X31	Y31	Z31	X32	Y32	Z32	X33	Y33	Z33	X34	Y34	Z34	X35	Y35	Z35	X36	Y36	Z36	X37	Y37	Z37	X38	Y38	Z38	X39	Y39	Z39	X40	Y40	Z40	X41	Y41	Z41	X42	Y42	Z42	

117	1.36	1046.683795	1087.121838	-231.279418	881.676846	1145.163084	-407.559885	884.470139	1140.36577	-294.075029	885.667086	824.691913	-193.299587	897.5453659999999	669.113333	-207.787614	996.683306	960.711182	-532.22875	963.451325	796.465074	-484.147321	1046.092308	678.125611	-482.206527	817.277565	421.50079	-275.873725	731.783737	439.98356	-204.456854	1146.325123	470.430604	-414.899519	1075.005301	352.586288	-465.547	1142.938444	253.783067	-402.061325	507.226511	313.409845	-268.159806	569.664303	116.614994	-217.291616	1039.867194	95.375488	-374.653416	1271.290102	143.862199	-359.371803	1241.919344	74.212225	-441.894578	1016.416982	1580.699386	-506.617882	1076.033001	1549.745573	-194.736082	1106.009227	1515.519194	-332.462181	987.140193	1593.098847	-342.963239	981.262623	1457.717816	-112.040375	1026.264035	1392.436051	-100.762034	972.078414	1315.722522	-48.241132	946.369047	1253.235435	-21.948758	889.30974	1526.306134	-549.412067	891.773545	1446.229814	-584.419985	800.212959	1408.266791	-594.995264	761.818984	1349.143306	-611.074866	1035.830527	1211.066183	-67.65270200000001	1141.853331	1209.798193	-210.911616	1150.129663	1154.304325	-169.730276	815.481889	1286.107375	-620.142409	993.036973	1247.840478	-562.676781	967.795985	1189.32114	-596.836483	608.664256	97.603148	-314.508998	960.274918	962.750366	-177.157532	758.209684	1324.711357	-523.9553	666.008684	304.006977	-279.890501	915.190973	1237.241131	-105.568965	1069.116553	1074.032754	-477.293364	
118	1.37	1047.329068	1080.580436	-232.488322	882.143733	1138.678725	-408.15311	884.820832	1133.985906	-294.71081	890.159817	816.86493	-194.002173	905.423577	661.502766	-208.397662	996.780299	954.720047	-533.158419	963.661391	790.429971	-484.535374	1046.99086	672.45719	-482.064568	821.232356	416.705048	-275.598351	737.1665860000001	439.344239	-203.480695	1144.486688	463.113611	-414.944767	1071.722812	346.3987	-466.019566	1137.732	246.624296	-402.173757	505.242086	322.590339	-264.818552	561.146957	123.331535	-215.721605	1031.808428	92.915829	-374.40305	1263.889996	132.859789	-357.848592	1232.967916	61.959418	-438.468208	1016.021767	1574.237633	-508.173858	1074.795531	1544.224369	-195.816538	1105.495621	1510.137886	-333.338424	986.272037	1587.114579	-344.622347	978.5278949999999	1453.21682	-113.623712	1023.016816	1387.879206	-101.249041	967.755728	1311.517737	-49.368497	941.059523	1249.525189	-22.944834	889.281111	1518.090611	-551.130188	892.920755	1437.754712	-585.464401	801.977523	1398.295604	-596.016391	764.530846	1338.47813	-611.906505	1030.028384	1204.129186	-66.85471699999999	1138.116429	1197.237884	-209.092874	1144.085221	1142.788338	-166.144157	819.2313339999999	1276.266317	-620.739662	997.2918529999999	1240.880662	-562.876895	973.054426	1181.993071	-597.167311	599.9175320000001	104.139953	-312.875347	962.733957	956.155825	-178.291563	761.293794	1314.204323	-524.616461	664.388162	306.585443	-277.963282	910.412234	1233.417522	-106.554285	1069.694142	1067.476751	-478.562152	
119	1.38	1048.027863	1073.045062	-233.62614	882.610295	1131.078776	-408.705382	885.225807	1126.627473	-295.257081	894.63543	808.256843	-194.774559	913.417361	653.121322	-208.770042	996.78594	947.64102	-533.839905	963.872894	783.389245	-484.687765	1047.891708	665.904165	-482.164816	826.175869	411.363343	-275.017693	743.336606	438.399178	-202.446927	1142.328541	454.331557	-415.767546	1066.388363	339.316153	-465.901555	1130.468533	238.207699	-401.99707	504.27908	331.303429	-261.689526	555.050193	130.396653	-213.903554	1020.214895	92.460572	-372.722526	1253.349705	117.312687	-356.382644	1218.882091	48.630057	-436.550865	1015.602071	1566.57807	-509.595162	1073.284615	1537.705017	-196.790226	1104.904105	1503.787745	-334.060315	985.228254	1580.119111	-346.291179	975.439148	1447.65893	-115.280302	1019.360474	1382.249141	-101.849878	962.943491	1306.30367	-50.577507	935.165915	1244.945914	-23.953976	889.400699	1508.618588	-553.073615	894.345217	1428.063553	-586.5825579999999	804.101355	1386.954977	-597.245425	767.632641	1326.49765	-612.975669	1023.602196	1196.257223	-65.663393	1133.879786	1183.227466	-206.594946	1137.331464	1129.895792	-161.851421	823.397281	1265.098396	-621.55192	1001.857577	1232.616481	-563.023684	978.657734	1173.366017	-597.40935	593.676787	111.053944	-311.102541	965.187681	948.689469	-179.402694	764.714969	1302.516451	-525.457343	664.2628560000001	308.956065	-276.172058	905.582307	1228.640322	-107.998205	1070.325239	1059.926825	-479.759851	
120	1.39	1048.534163	1064.657779	-234.652549	882.920736	1122.703359	-409.413701	885.453133	1118.424838	-295.727143	899.093474	798.859122	-195.412205	921.368595	644.019796	-208.732523	996.882376	939.674265	-533.919952	964.053974	775.570204	-484.944359	1048.835405	658.777949	-482.608642	831.956757	405.576444	-274.053531	750.3683129999999	436.980762	-201.335002	1140.728594	445.076538	-416.537366	1060.172261	332.105062	-464.292427	1121.951047	229.49267	-400.261118	504.792689	339.395182	-258.792437	551.245398	137.26254	-211.907937	1005.809973	93.222493	-369.486721	1240.05384	100.751862	-354.322812	1201.56296	38.996149	-437.297532	1015.162803	1557.856826	-511.026015	1071.555298	1530.345098	-197.553305	1104.305746	1496.527361	-334.598001	983.881981	1572.062249	-347.986861	971.921234	1441.045885	-117.107791	1015.337629	1375.532863	-102.594	957.705829	1300.110744	-51.898739	928.771121	1239.543265	-24.993441	889.704526	1497.939852	-555.1989150000001	896.092034	1417.190699	-587.846275	806.629547	1374.315908	-598.721128	771.166408	1313.251859	-614.343853	1016.593479	1187.568266	-64.04989	1129.047825	1167.922631	-203.218067	1129.828052	1115.772999	-156.75854	827.968735	1252.660881	-622.558143	1006.717664	1223.087651	-563.1365970000001	984.59	1163.522491	-597.594883	589.663225	117.638874	-309.167494	967.439469	940.437944	-180.596477	768.478448	1289.651609	-526.649304	665.493652	310.88884	-274.26556	900.5256460000001	1222.96854	-109.628376	1070.76383	1051.525056	-480.846188	
